{
  "accessors": [
    {
      "bufferView": 2,
      "componentType": 5126,
      "count": 2426,
      "max": [
        3.131666898727417,
        3.0595359802246094,
        6.528717041015625
      ],
      "min": [
        -3.2918169498443604,
        -3.378511905670166,
        0.10875999927520752
      ],
      "type": "VEC3"
    },
    {
      "bufferView": 2,
      "byteOffset": 29112,
      "componentType": 5126,
      "count": 2426,
      "max": [
        0.9987491965293884,
        0.9999680519104004,
        0.9995234608650208
      ],
      "min": [
        -0.9986815452575684,
        -0.9996998906135559,
        -0.9998368620872498
      ],
      "type": "VEC3"
    },
    {
      "bufferView": 3,
      "componentType": 5126,
      "count": 2426,
      "max": [
        0.7499049305915833,
        0.9992951154708862,
        0.8602235317230225,
        1.0
      ],
      "min": [
        -0.9657999277114868,
        -0.9999732971191406,
        -0.9870144128799438,
        1.0
      ],
      "type": "VEC4"
    },
    {
      "bufferView": 1,
      "componentType": 5126,
      "count": 2426,
      "max": [
        0.9999740123748779,
        0.9736239910125732
      ],
      "min": [
        0.0001250000059371814,
        8.099999831756577e-05
      ],
      "type": "VEC2"
    },
    {
      "bufferView": 0,
      "componentType": 5125,
      "count": 13650,
      "type": "SCALAR"
    }
  ],
  "asset": {
    "extras": {
      "author": "Lassi Kaukonen (https://sketchfab.com/thesidekick)",
      "license": "CC-BY-4.0 (http://creativecommons.org/licenses/by/4.0/)",
      "source": "https://sketchfab.com/3d-models/basketball-8d17cb0964334a6cbe4b0e293c238956",
      "title": "Basketball"
    },
    "generator": "Sketchfab-12.68.0",
    "version": "2.0"
  },
  "bufferViews": [
    {
      "buffer": 0,
      "byteLength": 54600,
      "name": "floatBufferViews",
      "target": 34963
    },
    {
      "buffer": 0,
      "byteLength": 19408,
      "byteOffset": 54600,
      "byteStride": 8,
      "name": "floatBufferViews",
      "target": 34962
    },
    {
      "buffer": 0,
      "byteLength": 58224,
      "byteOffset": 74008,
      "byteStride": 12,
      "name": "floatBufferViews",
      "target": 34962
    },
    {
      "buffer": 0,
      "byteLength": 38816,
      "byteOffset": 132232,
      "byteStride": 16,
      "name": "floatBufferViews",
      "target": 34962
    }
  ],
  "buffers": [
    {
      "byteLength": 171048,
      "uri": "scene.bin"
    }
  ],
  "images": [
    {
      "uri": "textures/Basketball_size6_baseColor.jpeg"
    },
    {
      "uri": "textures/Basketball_size6_metallicRoughness.png"
    },
    {
      "uri": "textures/Basketball_size6_normal.png"
    }
  ],
  "materials": [
    {
      "doubleSided": true,
      "name": "Basketball_size6",
      "normalTexture": {
        "index": 2,
        "scale": 0.759280303030303
      },
      "occlusionTexture": {
        "index": 1
      },
      "pbrMetallicRoughness": {
        "baseColorFactor": [
          0.8259469696969697,
          0.8259469696969697,
          0.8259469696969697,
          1.0
        ],
        "baseColorTexture": {
          "index": 0
        },
        "metallicFactor": 0.0,
        "metallicRoughnessTexture": {
          "index": 1
        },
        "roughnessFactor": 0.4077651515151515
      }
    }
  ],
  "meshes": [
    {
      "name": "Object_0",
      "primitives": [
        {
          "attributes": {
            "NORMAL": 1,
            "POSITION": 0,
            "TANGENT": 2,
            "TEXCOORD_0": 3
          },
          "indices": 4,
          "material": 0,
          "mode": 4
        }
      ]
    }
  ],
  "nodes": [
    {
      "children": [
        1
      ],
      "matrix": [
        1.0,
        0.0,
        0.0,
        0.0,
        0.0,
        2.220446049250313e-16,
        -1.0,
        0.0,
        0.0,
        1.0,
        2.220446049250313e-16,
        0.0,
        0.0,
        0.0,
        0.0,
        1.0
      ],
      "name": "Sketchfab_model"
    },
    {
      "children": [
        2
      ],
      "name": "Basketball_size6_SF.obj.cleaner.materialmerger.gles"
    },
    {
      "mesh": 0,
      "name": "Object_2"
    }
  ],
  "samplers": [
    {
      "magFilter": 9729,
      "minFilter": 9987,
      "wrapS": 10497,
      "wrapT": 10497
    }
  ],
  "scene": 0,
  "scenes": [
    {
      "name": "Sketchfab_Scene",
      "nodes": [
        0
      ]
    }
  ],
  "textures": [
    {
      "sampler": 0,
      "source": 0
    },
    {
      "sampler": 0,
      "source": 1
    },
    {
      "sampler": 0,
      "source": 2
    }
  ]
}
